<mxfile host="app.diagrams.net" modified="2022-07-12T18:43:09.266Z" agent="5.0 (Windows NT 10.0; Win64; x64) AppleWebKit/537.36 (KHTML, like Gecko) Chrome/103.0.5060.114 Safari/537.36 Edg/103.0.1264.49" etag="GSpoTcjwhfeDuaI4eAd5" version="20.0.3" type="github">
  <diagram id="C5RBs43oDa-KdzZeNtuy" name="Page-1">
    <mxGraphModel dx="782" dy="468" grid="1" gridSize="10" guides="1" tooltips="1" connect="1" arrows="1" fold="1" page="1" pageScale="1" pageWidth="827" pageHeight="1169" math="0" shadow="0">
      <root>
        <mxCell id="WIyWlLk6GJQsqaUBKTNV-0" />
        <mxCell id="WIyWlLk6GJQsqaUBKTNV-1" parent="WIyWlLk6GJQsqaUBKTNV-0" />
        <mxCell id="gzeF0NegvIm57rxP7j8j-12" style="edgeStyle=orthogonalEdgeStyle;rounded=0;orthogonalLoop=1;jettySize=auto;html=1;exitX=0;exitY=0.5;exitDx=0;exitDy=0;" edge="1" parent="WIyWlLk6GJQsqaUBKTNV-1" source="WIyWlLk6GJQsqaUBKTNV-3" target="gzeF0NegvIm57rxP7j8j-11">
          <mxGeometry relative="1" as="geometry" />
        </mxCell>
        <mxCell id="gzeF0NegvIm57rxP7j8j-34" style="edgeStyle=orthogonalEdgeStyle;rounded=0;orthogonalLoop=1;jettySize=auto;html=1;exitX=0.5;exitY=1;exitDx=0;exitDy=0;entryX=0.5;entryY=0;entryDx=0;entryDy=0;" edge="1" parent="WIyWlLk6GJQsqaUBKTNV-1" source="WIyWlLk6GJQsqaUBKTNV-3" target="gzeF0NegvIm57rxP7j8j-0">
          <mxGeometry relative="1" as="geometry" />
        </mxCell>
        <mxCell id="WIyWlLk6GJQsqaUBKTNV-3" value="Get Name" style="rounded=1;whiteSpace=wrap;html=1;fontSize=12;glass=0;strokeWidth=1;shadow=0;" parent="WIyWlLk6GJQsqaUBKTNV-1" vertex="1">
          <mxGeometry x="387" y="330" width="120" height="40" as="geometry" />
        </mxCell>
        <mxCell id="gzeF0NegvIm57rxP7j8j-13" style="edgeStyle=orthogonalEdgeStyle;rounded=0;orthogonalLoop=1;jettySize=auto;html=1;entryX=0.5;entryY=1;entryDx=0;entryDy=0;" edge="1" parent="WIyWlLk6GJQsqaUBKTNV-1" source="gzeF0NegvIm57rxP7j8j-0" target="gzeF0NegvIm57rxP7j8j-11">
          <mxGeometry relative="1" as="geometry" />
        </mxCell>
        <mxCell id="gzeF0NegvIm57rxP7j8j-32" style="edgeStyle=orthogonalEdgeStyle;rounded=0;orthogonalLoop=1;jettySize=auto;html=1;exitX=0.5;exitY=1;exitDx=0;exitDy=0;entryX=0.5;entryY=0;entryDx=0;entryDy=0;" edge="1" parent="WIyWlLk6GJQsqaUBKTNV-1" source="gzeF0NegvIm57rxP7j8j-0" target="gzeF0NegvIm57rxP7j8j-30">
          <mxGeometry relative="1" as="geometry" />
        </mxCell>
        <mxCell id="gzeF0NegvIm57rxP7j8j-0" value="Get bid amount" style="rounded=1;whiteSpace=wrap;html=1;" vertex="1" parent="WIyWlLk6GJQsqaUBKTNV-1">
          <mxGeometry x="387" y="420" width="120" height="60" as="geometry" />
        </mxCell>
        <mxCell id="gzeF0NegvIm57rxP7j8j-5" style="edgeStyle=orthogonalEdgeStyle;rounded=0;orthogonalLoop=1;jettySize=auto;html=1;exitX=1;exitY=0.5;exitDx=0;exitDy=0;" edge="1" parent="WIyWlLk6GJQsqaUBKTNV-1" source="gzeF0NegvIm57rxP7j8j-3">
          <mxGeometry relative="1" as="geometry">
            <mxPoint x="660" y="690" as="targetPoint" />
          </mxGeometry>
        </mxCell>
        <mxCell id="gzeF0NegvIm57rxP7j8j-14" style="edgeStyle=orthogonalEdgeStyle;rounded=0;orthogonalLoop=1;jettySize=auto;html=1;exitX=0.5;exitY=1;exitDx=0;exitDy=0;entryX=0.5;entryY=0;entryDx=0;entryDy=0;" edge="1" parent="WIyWlLk6GJQsqaUBKTNV-1" source="gzeF0NegvIm57rxP7j8j-3" target="gzeF0NegvIm57rxP7j8j-10">
          <mxGeometry relative="1" as="geometry" />
        </mxCell>
        <mxCell id="gzeF0NegvIm57rxP7j8j-3" value="Add more people to bidding list?" style="rhombus;whiteSpace=wrap;html=1;" vertex="1" parent="WIyWlLk6GJQsqaUBKTNV-1">
          <mxGeometry x="357.5" y="650" width="185" height="160" as="geometry" />
        </mxCell>
        <mxCell id="gzeF0NegvIm57rxP7j8j-6" value="Yes" style="text;html=1;strokeColor=none;fillColor=none;align=center;verticalAlign=middle;whiteSpace=wrap;rounded=0;" vertex="1" parent="WIyWlLk6GJQsqaUBKTNV-1">
          <mxGeometry x="570" y="660" width="60" height="30" as="geometry" />
        </mxCell>
        <mxCell id="gzeF0NegvIm57rxP7j8j-9" style="edgeStyle=orthogonalEdgeStyle;rounded=0;orthogonalLoop=1;jettySize=auto;html=1;exitX=0.5;exitY=0;exitDx=0;exitDy=0;entryX=1;entryY=0.5;entryDx=0;entryDy=0;" edge="1" parent="WIyWlLk6GJQsqaUBKTNV-1" source="gzeF0NegvIm57rxP7j8j-7" target="WIyWlLk6GJQsqaUBKTNV-3">
          <mxGeometry relative="1" as="geometry" />
        </mxCell>
        <mxCell id="gzeF0NegvIm57rxP7j8j-7" value="Clear" style="rounded=1;whiteSpace=wrap;html=1;" vertex="1" parent="WIyWlLk6GJQsqaUBKTNV-1">
          <mxGeometry x="660" y="670" width="120" height="50" as="geometry" />
        </mxCell>
        <mxCell id="gzeF0NegvIm57rxP7j8j-16" style="edgeStyle=orthogonalEdgeStyle;rounded=0;orthogonalLoop=1;jettySize=auto;html=1;exitX=0.5;exitY=1;exitDx=0;exitDy=0;entryX=0.5;entryY=0;entryDx=0;entryDy=0;" edge="1" parent="WIyWlLk6GJQsqaUBKTNV-1" source="gzeF0NegvIm57rxP7j8j-10" target="gzeF0NegvIm57rxP7j8j-15">
          <mxGeometry relative="1" as="geometry" />
        </mxCell>
        <mxCell id="gzeF0NegvIm57rxP7j8j-10" value="Calculate who has highest bid" style="rounded=1;whiteSpace=wrap;html=1;" vertex="1" parent="WIyWlLk6GJQsqaUBKTNV-1">
          <mxGeometry x="390" y="830" width="120" height="60" as="geometry" />
        </mxCell>
        <mxCell id="gzeF0NegvIm57rxP7j8j-11" value="Add to dictionary" style="text;html=1;strokeColor=#6c8ebf;fillColor=#dae8fc;align=center;verticalAlign=middle;whiteSpace=wrap;rounded=0;" vertex="1" parent="WIyWlLk6GJQsqaUBKTNV-1">
          <mxGeometry x="267" y="390" width="60" height="30" as="geometry" />
        </mxCell>
        <mxCell id="gzeF0NegvIm57rxP7j8j-29" style="edgeStyle=orthogonalEdgeStyle;rounded=0;orthogonalLoop=1;jettySize=auto;html=1;exitX=0.5;exitY=1;exitDx=0;exitDy=0;entryX=0.5;entryY=0;entryDx=0;entryDy=0;" edge="1" parent="WIyWlLk6GJQsqaUBKTNV-1" source="gzeF0NegvIm57rxP7j8j-15" target="gzeF0NegvIm57rxP7j8j-28">
          <mxGeometry relative="1" as="geometry" />
        </mxCell>
        <mxCell id="gzeF0NegvIm57rxP7j8j-15" value="Print highest bidder" style="rounded=1;whiteSpace=wrap;html=1;" vertex="1" parent="WIyWlLk6GJQsqaUBKTNV-1">
          <mxGeometry x="390" y="960" width="120" height="60" as="geometry" />
        </mxCell>
        <mxCell id="gzeF0NegvIm57rxP7j8j-25" style="edgeStyle=orthogonalEdgeStyle;rounded=0;orthogonalLoop=1;jettySize=auto;html=1;entryX=1;entryY=0.5;entryDx=0;entryDy=0;exitX=0;exitY=0.5;exitDx=0;exitDy=0;" edge="1" parent="WIyWlLk6GJQsqaUBKTNV-1" source="gzeF0NegvIm57rxP7j8j-28" target="gzeF0NegvIm57rxP7j8j-20">
          <mxGeometry relative="1" as="geometry">
            <mxPoint x="390" y="1130" as="sourcePoint" />
          </mxGeometry>
        </mxCell>
        <mxCell id="gzeF0NegvIm57rxP7j8j-20" value="Quit" style="rounded=1;whiteSpace=wrap;html=1;" vertex="1" parent="WIyWlLk6GJQsqaUBKTNV-1">
          <mxGeometry x="150" y="1100" width="120" height="60" as="geometry" />
        </mxCell>
        <mxCell id="gzeF0NegvIm57rxP7j8j-22" value="No" style="text;html=1;strokeColor=none;fillColor=none;align=center;verticalAlign=middle;whiteSpace=wrap;rounded=0;" vertex="1" parent="WIyWlLk6GJQsqaUBKTNV-1">
          <mxGeometry x="297.5" y="1100" width="60" height="30" as="geometry" />
        </mxCell>
        <mxCell id="gzeF0NegvIm57rxP7j8j-27" value="Yes" style="text;html=1;strokeColor=none;fillColor=none;align=center;verticalAlign=middle;whiteSpace=wrap;rounded=0;" vertex="1" parent="WIyWlLk6GJQsqaUBKTNV-1">
          <mxGeometry x="614" y="1100" width="60" height="30" as="geometry" />
        </mxCell>
        <mxCell id="gzeF0NegvIm57rxP7j8j-31" style="edgeStyle=orthogonalEdgeStyle;rounded=0;orthogonalLoop=1;jettySize=auto;html=1;exitX=1;exitY=0.5;exitDx=0;exitDy=0;entryX=1;entryY=0.5;entryDx=0;entryDy=0;" edge="1" parent="WIyWlLk6GJQsqaUBKTNV-1" source="gzeF0NegvIm57rxP7j8j-28" target="WIyWlLk6GJQsqaUBKTNV-3">
          <mxGeometry relative="1" as="geometry">
            <Array as="points">
              <mxPoint x="800" y="1120" />
              <mxPoint x="800" y="350" />
            </Array>
          </mxGeometry>
        </mxCell>
        <mxCell id="gzeF0NegvIm57rxP7j8j-28" value="Restart Auction?" style="rhombus;whiteSpace=wrap;html=1;" vertex="1" parent="WIyWlLk6GJQsqaUBKTNV-1">
          <mxGeometry x="410" y="1080" width="80" height="80" as="geometry" />
        </mxCell>
        <mxCell id="gzeF0NegvIm57rxP7j8j-33" style="edgeStyle=orthogonalEdgeStyle;rounded=0;orthogonalLoop=1;jettySize=auto;html=1;exitX=0.5;exitY=1;exitDx=0;exitDy=0;entryX=0.5;entryY=0;entryDx=0;entryDy=0;" edge="1" parent="WIyWlLk6GJQsqaUBKTNV-1" source="gzeF0NegvIm57rxP7j8j-30" target="gzeF0NegvIm57rxP7j8j-3">
          <mxGeometry relative="1" as="geometry" />
        </mxCell>
        <mxCell id="gzeF0NegvIm57rxP7j8j-30" value="Add new bid to list" style="rounded=1;whiteSpace=wrap;html=1;" vertex="1" parent="WIyWlLk6GJQsqaUBKTNV-1">
          <mxGeometry x="387" y="530" width="120" height="70" as="geometry" />
        </mxCell>
        <mxCell id="gzeF0NegvIm57rxP7j8j-36" style="edgeStyle=orthogonalEdgeStyle;rounded=0;orthogonalLoop=1;jettySize=auto;html=1;exitX=0.5;exitY=1;exitDx=0;exitDy=0;entryX=0.5;entryY=0;entryDx=0;entryDy=0;" edge="1" parent="WIyWlLk6GJQsqaUBKTNV-1" source="gzeF0NegvIm57rxP7j8j-35" target="WIyWlLk6GJQsqaUBKTNV-3">
          <mxGeometry relative="1" as="geometry" />
        </mxCell>
        <mxCell id="gzeF0NegvIm57rxP7j8j-35" value="Start with logo and greeting" style="rounded=1;whiteSpace=wrap;html=1;fillColor=#dae8fc;strokeColor=#6c8ebf;" vertex="1" parent="WIyWlLk6GJQsqaUBKTNV-1">
          <mxGeometry x="387" y="230" width="120" height="60" as="geometry" />
        </mxCell>
      </root>
    </mxGraphModel>
  </diagram>
</mxfile>
